<svg id="レイヤー_1" data-name="レイヤー 1" xmlns="http://www.w3.org/2000/svg" viewBox="0 0 1198.64 1223.8"><defs><style>.cls-1{fill:#c1272d;}.cls-2,.cls-3{fill:#fff;}.cls-3{stroke:#fff;stroke-miterlimit:10;stroke-width:2px;}</style></defs><path class="cls-1" d="M325.05,410.63l29.28,22.13-8.16,10.81,28.48,21.53L350.1,497.58l-67.77-51.22q-19.12-14.46-22.73-35.72t9.95-39.19q14.93-19.77,42-20.17l-.7,41.34q-7.94-2.47-12.23,3.21-5.68,7.51,4.72,15.38l13.52,10.22Z" transform="translate(-141.36 -157.55)"/><path class="cls-2" d="M377.48,320.42a42.47,42.47,0,0,1,32.14-10.73A44.46,44.46,0,0,1,451,357.24a45.36,45.36,0,0,1-48,42,42.87,42.87,0,0,1-30.78-15q-12.4-14.16-10.91-32.55T377.48,320.42Zm20.25,24.43a11.72,11.72,0,0,0-4.13,8.59,13.31,13.31,0,0,0,12.07,13.71,12.05,12.05,0,0,0,13.19-11.56,13.29,13.29,0,0,0-12-13.77A11.85,11.85,0,0,0,397.73,344.85Z" transform="translate(-141.36 -157.55)"/><path class="cls-2" d="M476.86,250.74l18.19,29.18a12.64,12.64,0,0,0-6.18,1.62q-7.44,4.65-.34,16l21.52,34.51-27.28,17L458,309.33q-9.83-15.76-7.06-30.5T468,255.13A65.33,65.33,0,0,1,476.86,250.74Z" transform="translate(-141.36 -157.55)"/><path class="cls-2" d="M596.44,250.51l-45,18.78a23.31,23.31,0,0,1-3.65-5.83,24,24,0,0,1-1.82-8.37l15.07-6.3q-5.26-8.14-13.59-4.66a11.66,11.66,0,0,0-7.07,8.49q-1.53,6.18,1.56,13.56,3.21,7.69,8.57,11.05a11.25,11.25,0,0,0,10.84,1.06q4.44-1.86,6.71-8l25.38,13.25a45,45,0,0,1-22.38,20.25q-17.62,7.35-34.53.54T512.34,280q-7.25-17.37-.16-34.41t24.71-24.38q17.21-7.19,33.8-.38t23.74,23.95Q595.17,246.56,596.44,250.51Z" transform="translate(-141.36 -157.55)"/><path class="cls-2" d="M613.56,158a15.72,15.72,0,0,1,12.07,1.8,15.2,15.2,0,0,1,5.42,21.2,17.7,17.7,0,0,1-22.48,5.46,15.21,15.21,0,0,1-4.91-21.32A15.77,15.77,0,0,1,613.56,158Zm24.57,33.4,20.23,83.29-31.24,7.59L606.89,199Z" transform="translate(-141.36 -157.55)"/><path class="cls-2" d="M722.4,230.52l2.29,29.39a38.18,38.18,0,0,1-13.08,3.61q-15.51,1.22-27.19-9.69t-13-27.87A41.62,41.62,0,0,1,682,194q12-13.6,30.81-15.08a47.35,47.35,0,0,1,19.51,2.53,36.17,36.17,0,0,1,15.25,9.67q9.62,10.55,11.28,31.89l2.2,28.11q1.79,22.88-10.08,38.17t-32.7,16.91q-6.35.5-16.27-1.92l-2.28-29.14a26.27,26.27,0,0,0,13,2.44q8.65-.68,12.93-6.75T729,254.15L726.47,222q-1.05-13.45-11.93-12.61a11,11,0,0,0-7.82,4.19,11.42,11.42,0,0,0-2.84,8.46,11,11,0,0,0,3.94,7.88,11.24,11.24,0,0,0,8.44,2.62A13.63,13.63,0,0,0,722.4,230.52Z" transform="translate(-141.36 -157.55)"/><path class="cls-2" d="M858.71,273,826.8,269l5.92-48q.9-7.34-5.16-8.08t-6.87,6.6l-5.92,48-31.91-3.93,5.84-47.44q2.06-16.63,14.46-26.67a36.31,36.31,0,0,1,28.36-8.07q18.27,2.24,27.64,16.82,7.35,11.38,5.08,29.82Z" transform="translate(-141.36 -157.55)"/><path class="cls-2" d="M1017.68,291.37l-44.5-19.91a23.43,23.43,0,0,1,1.76-6.66,23.79,23.79,0,0,1,4.85-7.06l14.91,6.67q2.32-9.41-5.91-13.1a11.71,11.71,0,0,0-11,.67q-5.54,3.12-8.8,10.42-3.42,7.62-2.18,13.82a11.24,11.24,0,0,0,6.64,8.62q4.4,2,10.44-.6l7.73,27.56a44.92,44.92,0,0,1-30.08-2.44q-17.43-7.78-24-24.79t1.11-34.25a43,43,0,0,1,24.95-23.68q17.28-6.49,34.69,1.3,17,7.62,23.43,24.37t-1.19,33.7C1019.93,287.17,1019,289,1017.68,291.37Z" transform="translate(-141.36 -157.55)"/><path class="cls-1" d="M1169.82,288.55l-67.9,33.06-11.42,78.54L1055.81,375l5.83-36.77-31,18.54-34.12-24.71,71-34,10.87-75.72,34.36,24.88-5.32,34.54,28.63-17.66Z" transform="translate(-141.36 -157.55)"/><path class="cls-2" d="M1163.66,409.78,1186,432.6q-14.68,11.46-31.91,10.25t-29.23-14.46q-12.7-14-11.71-32.5t15.14-31.3a41.91,41.91,0,0,1,31.82-11.1,44.55,44.55,0,0,1,33.4,71.26l-22.78-23.33a12.92,12.92,0,0,0-3.08-11.59,12.06,12.06,0,0,0-8.74-4.26,12.47,12.47,0,0,0-9.12,3.51,12.77,12.77,0,0,0-4.43,9.06,12.56,12.56,0,0,0,3.46,9.45Q1154.28,413.65,1163.66,409.78Z" transform="translate(-141.36 -157.55)"/><path class="cls-2" d="M1282.13,440.71l-30.78,18.38q9.29,4,13.47,11,6.35,10.64,2.39,21.45t-17,18.62L1203.55,538l-16.49-27.61,38.9-23.22q4.72-2.82,5.75-4.79t-.69-4.85q-2.77-4.65-9.64-.55l-40,23.89-16.49-27.6,100.75-60.17Z" transform="translate(-141.36 -157.55)"/><path class="cls-2" d="M1258.71,591l-31.43,10.91a42.19,42.19,0,0,1-3-6.6q-6.35-18.27,1.45-34.63T1251.62,538a44.4,44.4,0,0,1,56.8,27.61q6.82,19.67-.74,35t-27.46,22.22l-39.72,13.78L1230,606.23l37.52-13q6.42-2.22,9.15-6.68a10.91,10.91,0,0,0,.9-9.73,12.66,12.66,0,0,0-23-1.65,11.43,11.43,0,0,0-.46,9.17A14.56,14.56,0,0,0,1258.71,591Z" transform="translate(-141.36 -157.55)"/><path class="cls-2" d="M1254.59,732.63l-4.12-31.89,48-6.19q7.32-.94,6.55-7c-.51-4-3.22-5.65-8.1-5l-48,6.19-4.11-31.89,47.41-6.11q16.62-2.15,29.42,7.39a36.28,36.28,0,0,1,14.86,25.47q2.36,18.25-9.44,30.95-9.21,9.94-27.63,12.32Z" transform="translate(-141.36 -157.55)"/><path class="cls-2" d="M1287.41,801.54,1258,799.41a38.25,38.25,0,0,1-1.61-13.48q1.11-15.51,13.64-25.43t29.51-8.68a41.6,41.6,0,0,1,30,15.19q11.67,13.85,10.31,32.72a47.42,47.42,0,0,1-5.42,18.91,36.18,36.18,0,0,1-11.85,13.63q-11.86,7.93-33.21,6.39l-28.13-2Q1238.36,835,1225,820.94t-11.83-34.85q.46-6.35,4.33-15.81l29.16,2.11a26.19,26.19,0,0,0-4.35,12.44q-.63,8.67,4.73,13.79t16,5.9l32.15,2.32q13.47,1,14.25-9.91a11,11,0,0,0-3-8.36,11.41,11.41,0,0,0-7.94-4.07,11,11,0,0,0-8.38,2.71,11.19,11.19,0,0,0-3.85,8A13.45,13.45,0,0,0,1287.41,801.54Z" transform="translate(-141.36 -157.55)"/><path class="cls-2" d="M1258.85,947.6l13.36-46.88a23.92,23.92,0,0,1,6.84.78,24.18,24.18,0,0,1,7.68,3.8L1282.25,921q9.64,1,12.12-7.72a11.66,11.66,0,0,0-2.23-10.83q-3.89-5-11.57-7.23-8-2.28-14-.18a11.23,11.23,0,0,0-7.58,7.8q-1.32,4.64,2.08,10.25l-26.18,11.58a45,45,0,0,1-1.88-30.12q5.24-18.36,21.11-27.33t34.07-3.79q18.1,5.16,27,21.32t3.66,34.52q-5.1,17.94-20.78,26.67t-33.53,3.63Q1262.72,949.06,1258.85,947.6Z" transform="translate(-141.36 -157.55)"/><path class="cls-1" d="M1233.6,1096.82l-81.33-53.94,22.51-33.93,81.33,53.94,17.24-26,32.76,21.73-56.94,85.84-32.76-21.74Z" transform="translate(-141.36 -157.55)"/><path class="cls-2" d="M1162.75,1177.4l-25-23.6a12.81,12.81,0,0,0,5.57-3.14q6-6.39-3.74-15.59L1110,1107.16l22.07-23.38,34.07,32.16q13.52,12.75,14.58,27.7t-10.55,27.28A67,67,0,0,1,1162.75,1177.4Z" transform="translate(-141.36 -157.55)"/><path class="cls-2" d="M1072.91,1181.41l-20.08-26.53a43.3,43.3,0,0,1,5.34-4.9q15.42-11.68,33.39-9.32t29.53,17.65a44.41,44.41,0,0,1-8.71,62.56q-16.59,12.56-33.5,10.09t-29.61-19.25l-25.38-33.52,25.64-19.41,24,31.67q4.1,5.41,9.18,6.64a10.89,10.89,0,0,0,9.53-2.15,12.65,12.65,0,0,0-5.55-22.43,11.35,11.35,0,0,0-8.86,2.4A14.55,14.55,0,0,0,1072.91,1181.41Z" transform="translate(-141.36 -157.55)"/><path class="cls-2" d="M1008.09,1317.4,979,1331l-30.23-64.73q-8.33-17.83-4.22-33.42a42.19,42.19,0,0,1,8.87-16.66,44.53,44.53,0,0,1,15.23-11.77q17.39-8.12,34.75-2a42.51,42.51,0,0,1,25.3,23.1q7.68,16.42,1.44,34t-22.44,25.09c-1.71.8-4.38,1.85-8,3.17l-15-32.09a12.8,12.8,0,0,0,8.47-.55,11.5,11.5,0,0,0,6.21-6.93,12.15,12.15,0,0,0-.5-9.49,11.48,11.48,0,0,0-7-6.19,12.28,12.28,0,0,0-9.53.52q-11.22,5.24-4,20.74Z" transform="translate(-141.36 -157.55)"/><path class="cls-2" d="M837.92,1286.36l47.45-11.13a22.55,22.55,0,0,1,3.06,14.92l-15.9,3.72q3.84,8.91,12.64,6.84a11.66,11.66,0,0,0,8.37-7.22q2.52-5.84.69-13.62-1.9-8.13-6.64-12.31a11.21,11.21,0,0,0-10.51-2.83q-4.68,1.1-7.94,6.8l-22.85-17.25A45,45,0,0,1,871.7,1238q18.59-4.37,34.15,5.15t19.87,27.92a43,43,0,0,1-5.5,34q-9.81,15.63-28.38,20-18.17,4.26-33.41-5.19T839,1292.29Q838.52,1290.46,837.92,1286.36Z" transform="translate(-141.36 -157.55)"/><path class="cls-1" d="M713,1341l9.11-99.68,40.55,3.7-12.46,136.34-52-4.76q-23.77-2.17-35.78-15.15-13.38-14.52-11.52-34.8,1.89-20.67,21.26-33.2l-18.22-58.37,42.54,3.89,15.66,45.74-3.2,35.06-3.2-.29q-12.78-1.17-13.79,9.82-.89,9.69,13.9,11Z" transform="translate(-141.36 -157.55)"/><path class="cls-2" d="M550.05,1249.21l46.27,15.32a23.36,23.36,0,0,1-1.07,6.8,23.72,23.72,0,0,1-4.12,7.51l-15.5-5.13q-1.36,9.6,7.2,12.43a11.65,11.65,0,0,0,10.91-1.77q5.21-3.67,7.71-11.26,2.63-7.92.78-14a11.26,11.26,0,0,0-7.48-7.91q-4.57-1.52-10.33,1.65L574,1226.24a45,45,0,0,1,30.18-.6q18.12,6,26.41,22.24t2.36,34.19Q627,1300,610.45,1308.15t-34.64,2.2q-17.71-5.86-25.76-21.88t-2.22-33.65Q548.43,1253,550.05,1249.21Z" transform="translate(-141.36 -157.55)"/><path class="cls-2" d="M482.81,1214.64l-28.24-14.88q10.47-15.4,27.23-19.53t32.26,4.8q16.4,9.43,21.11,27.34t-4.81,34.44a41.94,41.94,0,0,1-26.9,20.32,44.56,44.56,0,0,1-53.63-57.6l28.84,15.23a12.89,12.89,0,0,0,6.49,10.09,12.07,12.07,0,0,0,9.62,1.38,12.52,12.52,0,0,0,7.6-6.14,12.82,12.82,0,0,0,1.44-10,12.56,12.56,0,0,0-6.19-7.93Q490.55,1208.09,482.81,1214.64Z" transform="translate(-141.36 -157.55)"/><path class="cls-2" d="M373.69,1193.31A42.49,42.49,0,0,1,359,1162.77a44.46,44.46,0,0,1,41.94-47.08,45.35,45.35,0,0,1,47.69,42.3,42.87,42.87,0,0,1-11,32.43q-12.49,14.08-30.92,14.93T373.69,1193.31Zm21.68-23.18a11.75,11.75,0,0,0,9.05,3,13.31,13.31,0,0,0,12.08-13.7,12,12,0,0,0-13.13-11.63,13.29,13.29,0,0,0-12.14,13.64A11.82,11.82,0,0,0,395.37,1170.13Z" transform="translate(-141.36 -157.55)"/><path class="cls-2" d="M292,1103.52l26.65-21.74a12.59,12.59,0,0,0,2.39,5.93q5.55,6.8,15.94-1.69l31.5-25.71,20.33,24.92-36.3,29.62q-14.39,11.73-29.36,10.86t-25.68-14A64.87,64.87,0,0,1,292,1103.52Z" transform="translate(-141.36 -157.55)"/><path class="cls-2" d="M223.18,1051.71l-16-27.92,62-35.44q17.08-9.76,33-7a42.16,42.16,0,0,1,17.34,7.47,44.57,44.57,0,0,1,13,14.22q9.51,16.65,4.84,34.46a42.57,42.57,0,0,1-20.94,27.12q-15.75,9-33.73,4.22t-26.85-20.3c-.94-1.64-2.21-4.22-3.82-7.72l30.76-17.57a12.83,12.83,0,0,0,1.23,8.4,11.55,11.55,0,0,0,7.42,5.61,12.11,12.11,0,0,0,9.42-1.27,11.44,11.44,0,0,0,5.59-7.45,12.25,12.25,0,0,0-1.29-9.46q-6.15-10.75-21-2.26Z" transform="translate(-141.36 -157.55)"/><path class="cls-1" d="M186.22,858.25l95.51-20,8.35,39.85-95.52,20,6.4,30.53-38.48,8.06L141.36,835.88l38.49-8.06Z" transform="translate(-141.36 -157.55)"/><path class="cls-2" d="M178.37,753.91a42.49,42.49,0,0,1,13.62-31,44.47,44.47,0,0,1,63,1.19A45.36,45.36,0,0,1,254,787.81a42.86,42.86,0,0,1-31.81,12.73q-18.83-.31-31.46-13.76T178.37,753.91Zm31.71,1.38a11.71,11.71,0,0,0,3.59,8.82,13.31,13.31,0,0,0,18.27.26,12.06,12.06,0,0,0,.28-17.54,13.3,13.3,0,0,0-18.26-.34A11.82,11.82,0,0,0,210.08,755.29Z" transform="translate(-141.36 -157.55)"/><path class="cls-2" d="M190.83,638.16a42.5,42.5,0,0,1,19.23-27.9,44.47,44.47,0,0,1,61.69,13.07,45.36,45.36,0,0,1-13.09,62.39A42.85,42.85,0,0,1,225,692.21q-18.43-3.86-28.3-19.44T190.83,638.16Zm30.88,7.34a11.72,11.72,0,0,0,1.86,9.34,13.3,13.3,0,0,0,17.89,3.7,12.06,12.06,0,0,0,3.59-17.17,13.3,13.3,0,0,0-17.87-3.78A11.83,11.83,0,0,0,221.71,645.5Z" transform="translate(-141.36 -157.55)"/><path class="cls-2" d="M194.15,525.85l109.66,41.8-11.46,30L182.7,555.9Z" transform="translate(-141.36 -157.55)"/><path class="cls-3" d="M830.43,624.31c0-.59-.3-1.47-.3-2s.3-.88,1.47-.88c1.76,0,2.64,1.76,2.64,4.4,0,2.93-1.46,7-4.69,10.56-5.87,5.87-8.81,21.13-23.77,21.13-20.25,0-39.91-4.7-69.25-9.39-26.12,12.62-53.41,38.73-78.06,69.55,18.19-1.18,35.8-2.65,49.89-2.65,18.78,0,31.39,2.35,31.39,9.69,0,8.51-11.15,17.9-13.79,17.9a.78.78,0,0,1-.88-.88,2.5,2.5,0,0,1,.88-1.76,3.78,3.78,0,0,0,1.18-2.94c0-4.11-6.17-10-26.12-10-21.72,0-37.86.88-51.06,1.76-43.72,58.68-76.88,130.87-76.88,168.14,0,9.39,4.11,13.2,4.11,15.26,0,2.35-1.18,2.93-2.94,2.93-19.37,0-37.85-26.41-37.85-40.79,0-2.64,3.23-2.34,3.23-3.52,0-24.94,30.51-83,71.89-137.62a244.19,244.19,0,0,1-35.21,2.64c-30.82,0-35.22-9.39-35.22-16.73,0-2.93.59-5.57.59-7,0-11.44,8.22-15,12-15,1.17,0,1.76.3,1.76.88,0,.3,0,.3-.29.59-3.23,2.94-3.82,5.58-3.82,7.63,0,11.74,18.49,15,44,15,7.92,0,16.73-.3,26.12-.88,24.35-30.52,51.94-58.4,78.93-77.47a951.07,951.07,0,0,0-105.64-5.58c-162,0-198.66,56.93-198.66,86.86,0,50.77,111.22,76.59,125,76.59,1.17,0,1.76.59,1.76,1.17,0,.88-1.47,2.06-4.11,2.06-16.43,0-54.87-12.91-64.26-12.91-9.1,0-64.56-11.45-64.56-65.44s66.61-117.67,201.59-117.67c63.39,0,118,6.16,159.05,11.74a64.29,64.29,0,0,1,10.57-1.18c10.85,0,17.6,2.35,21.42,5.58,16.72,2.34,29.93,3.81,38.44,3.81C829.25,627.83,830.43,626.07,830.43,624.31Z" transform="translate(-141.36 -157.55)"/><path class="cls-3" d="M890.58,656c0-5.28,3.81-6.45,12.32-6.45s12.62-1.76,17.31-1.76,8.51,4.1,8.51,7.33c0,6.16,1.18,27.29,5.29,52.53,60.45-39.32,123-69,167-69,12.61,0,15.25,5,19.07,8.51,3.23,3.23,7.92,4.4,7.92,8.22,0,1.46-.29,2.05-.88,2.05-.88,0-2.64-1.17-4.69-1.17-60.75,0-126.48,31.69-184.58,73.65,9.68,49.3,28.46,103.88,62.8,103.88,29.93,0,64.85-46.66,67.78-49.3.3-.29.59-.59.88-.59s.3.3.3.59a3.17,3.17,0,0,1-.88,2.05c-13.21,13.5-28.17,56.93-64,56.93-22.6,0-36.68-9.39-45.19-18.19-20.25-20.25-32.58-51.06-40.79-80.7-81.58,64.27-142.91,146.43-142.91,182.52,0,2.35.29,4.41.29,6.17,0,3.52-.88,5.87-5.57,5.87-6.16,0-31.69-20.55-31.69-46.37,0-27,82.45-107.69,174.3-171.08-7.63-35.21-10.86-64.26-16.43-64.26-4.7,0-2.64,5-4.4,5-1.47,0-1.76-2.64-1.76-4.7Z" transform="translate(-141.36 -157.55)"/></svg>